<?xml version="1.0" encoding="utf-8"?>
<!-- Generator: Adobe Illustrator 18.0.0, SVG Export Plug-In . SVG Version: 6.00 Build 0)  -->
<!DOCTYPE svg PUBLIC "-//W3C//DTD SVG 1.1//EN" "http://www.w3.org/Graphics/SVG/1.1/DTD/svg11.dtd">
<svg version="1.1" id="Layer_1" xmlns="http://www.w3.org/2000/svg" xmlns:xlink="http://www.w3.org/1999/xlink" x="0px" y="0px"
	 viewBox="0 0 500 500" enable-background="new 0 0 500 500" xml:space="preserve">
<g>
	<path d="M157.2,481.8c-3.1-28.4-0.9-55.6,5.3-81.9l25-107.7c-4.1-13.1-7.2-28.1-7.2-43.1c0-35,16.9-60,43.4-60
			c18.4,0,31.9,12.8,31.9,37.5c0,7.8-1.6,16.6-4.7,26.6L240,289.2c-2.2,6.9-3.1,13.4-3.1,19.1c0,25,19.1,39.1,43.4,39.1
			c43.4,0,74.4-45,74.4-103.3c0-65-42.5-106.5-105.3-106.5c-70,0-114.4,45.6-114.4,109c0,25.6,7.8,49.4,23.1,65.6
			c-5,8.4-10.3,10-18.4,10c-25,0-48.8-35.3-48.8-83.3c0-83.1,66.6-149.2,160-149.2c98.1,0,159.7,68.4,159.7,152.6
			c0,84.9-60,148.6-124.7,148.6c-25.6,0-48.1-10.9-63.8-30.6l-12.8,51.9c-6.9,26.9-17.2,52.2-33.8,76.6
			c23.4,7.2,46.6,11.3,74.4,11.3c138.1,0,250.1-111.8,250.1-249.8S388.1,0.1,250,0.1S-0.1,111.9-0.1,249.9
			C-0.1,354.5,64.4,444.6,157.2,481.8"/>
</g>
</svg>
