<svg xmlns="http://www.w3.org/2000/svg" viewBox="0 0 448 512"><!--!Font Awesome Free 6.6.0 by @fontawesome - https://fontawesome.com License - https://fontawesome.com/license/free Copyright 2024 Fonticons, Inc.--><path d="M0 32l69.7 118.8-58.9-11.5 69.8 91a146.7 146.7 0 0 0 0 51.5l-69.8 91 58.9-11.5L0 480l118.8-69.7-11.5 58.9 91-69.8c17 3 34.5 3 51.5 0l91 69.8-11.5-58.9L448 480l-69.7-118.8 58.9 11.5-69.8-91c3-17 3-34.4 0-51.5l69.8-91-58.9 11.5L448 32l-118.8 69.7 11.5-58.9-91.1 69.9c-8.5-1.5-17.1-2.3-25.7-2.3s-17.2 .8-25.7 2.3l-91.1-69.9 11.5 58.9L0 32zm224 99.8c31.8 0 63.6 12.1 87.9 36.4 48.5 48.5 48.5 127.2 0 175.7s-127.2 48.5-175.7 0c-48.5-48.5-48.5-127.2 0-175.7 24.2-24.3 56.1-36.3 87.9-36.3zm0 36.7c-22.4 0-44.8 8.5-61.9 25.6-34.2 34.2-34.2 89.7 0 123.9s89.7 34.2 123.8 0c34.2-34.2 34.2-89.7 0-123.9-17.1-17.1-39.5-25.6-61.9-25.6z"/></svg>