<?xml version="1.0" encoding="UTF-8"?>
<!DOCTYPE svg PUBLIC "-//W3C//DTD SVG 1.1//EN" "http://www.w3.org/Graphics/SVG/1.1/DTD/svg11.dtd">
<!-- Creator: CorelDRAW -->
<svg xmlns="http://www.w3.org/2000/svg" xml:space="preserve" width="2048px" height="2048px" style="shape-rendering:geometricPrecision; text-rendering:geometricPrecision; image-rendering:optimizeQuality; fill-rule:evenodd; clip-rule:evenodd"
viewBox="0 0 2048 2048"
 xmlns:xlink="http://www.w3.org/1999/xlink">
 <defs>
  <style type="text/css">
   <![CDATA[
    .fil1 {fill:none}
    .fil0 {fill:#424242}
   ]]>
  </style>
 </defs>
 <g id="Layer_x0020_1">
  <metadata id="CorelCorpID_0Corel-Layer"/>
  <path class="fil0" d="M578.13 255.999l1005.87 0 32.0008 0 0 32.0008 0 1472 -0.0011811 32.0008 -31.9996 0 -1120 0 -32.0008 0 0 -32.0008 0 -1357.87c0,-40.2189 16.4315,-76.7599 42.9012,-103.23 26.4697,-26.4697 63.0107,-42.9012 103.23,-42.9012zm485.034 287.999l0 704.943 117.489 0 73.1776 0 -40.591 60.8882 -156.656 234.98 -32.5855 48.8788 -32.5866 -48.8788 -156.652 -234.98 -40.5898 -60.8882 73.1753 0 117.49 0 0 -704.943 78.3284 0z"/>
 </g>
 <rect class="fil1" width="2048" height="2048"/>
</svg>
